<?xml version="1.0" encoding="UTF-8"?><svg id="Calque_1" xmlns="http://www.w3.org/2000/svg" viewBox="0 0 144 144"><path d="M109.09,38.92L57.81,10.32c-.16-.09-.33-.18-.5-.26C42.03,2.95,23.84,6.2,12.06,18.19h0c-14.94,15.2-14.87,39.39,.16,54.49l1.08,1.09c11.88,11.94,30.16,15.06,45.41,7.78,.22-.11,.44-.22,.65-.35l49.97-30.36c4.49-2.73,4.36-9.36-.22-11.92Zm-61.51,20.32c-5.85,2.74-12.9,1.62-17.47-2.78l-.41-.4c-5.74-5.53-5.76-14.38-.05-19.95,4.53-4.42,11.53-5.6,17.39-2.94l23.63,12.62-23.09,13.45Z" style="fill:#4c0bd1;"/><path d="M34.21,66.14l51.55-29.38c.16-.09,.33-.18,.5-.26,15.38-7.35,33.87-4.38,46,7.43h0c15.38,14.97,15.68,39.16,.68,54.49l-1.08,1.1c-11.86,12.12-30.34,15.52-45.91,8.47-.23-.1-.45-.22-.66-.34l-51.12-29.59c-4.59-2.66-4.57-9.29,.04-11.92Zm62.67,19.38c5.98,2.65,13.11,1.43,17.67-3.04l.41-.4c5.73-5.61,5.62-14.47-.26-19.95-4.66-4.35-11.78-5.42-17.68-2.68l-23.76,12.98,23.61,13.1Z" style="fill:#ee3ec9;"/><path d="M110.8,93.75l-51.55-29.38c-.16-.09-.33-.18-.5-.26-15.38-7.35-33.87-4.38-46,7.43h0c-15.38,14.97-15.68,39.16-.68,54.49l1.08,1.1c11.86,12.12,30.34,15.52,45.91,8.47,.23-.1,.45-.22,.66-.34l51.12-29.59c4.59-2.66,4.57-9.29-.04-11.92Zm-62.67,19.38c-5.98,2.65-13.11,1.43-17.67-3.04l-.41-.4c-5.73-5.61-5.62-14.47,.26-19.95,4.66-4.35,11.78-5.42,17.68-2.68l23.76,12.98-23.61,13.1Z" style="fill:#cb88ff;"/></svg>