<svg width="497" height="465" viewBox="0 0 497 465" fill="none" xmlns="http://www.w3.org/2000/svg">
<path d="M379.29 117.054L201.22 14.8217C200.65 14.4993 200.07 14.1871 199.48 13.905C146.35 -11.6808 82.4603 -1.3256 40.5503 39.7628C-12.5897 91.8713 -13.6297 176.023 38.1903 229.38L41.9103 233.218C82.8903 275.414 146.72 287.22 200.52 262.702C201.3 262.35 202.06 261.947 202.8 261.514L379.41 158.536C395.27 149.288 395.2 126.191 379.27 117.044L379.29 117.054ZM162.79 184.474C142.14 193.711 117.51 189.44 101.74 173.877L100.32 172.477C80.5203 152.945 80.9203 122.141 101.22 103.063C117.32 87.9327 141.92 84.1855 162.28 93.755L244.37 138.903L162.79 184.474Z" fill="black"/>
<path d="M116.971 212.204L295.041 110.714C295.611 110.394 296.191 110.084 296.781 109.804C349.911 84.404 413.801 94.684 455.711 135.474C508.851 187.204 509.891 270.744 458.071 323.714L454.351 327.524C413.371 369.414 349.541 381.134 295.741 356.794C294.961 356.444 294.201 356.044 293.461 355.614L116.851 253.384C100.991 244.204 101.061 221.274 116.991 212.194L116.971 212.204ZM333.471 279.134C354.121 288.304 378.751 284.064 394.521 268.614L395.941 267.224C415.741 247.834 415.341 217.254 395.041 198.314C378.941 183.294 354.341 179.574 333.981 189.074L251.891 233.894L333.471 279.134Z" fill="black"/>
<path d="M379.29 307.204L201.22 205.714C200.65 205.394 200.07 205.084 199.48 204.804C146.35 179.404 82.4603 189.684 40.5503 230.474C-12.5897 282.204 -13.6297 365.744 38.1903 418.714L41.9103 422.524C82.8903 464.414 146.72 476.134 200.52 451.794C201.3 451.444 202.06 451.044 202.8 450.614L379.41 348.384C395.27 339.204 395.2 316.274 379.27 307.194L379.29 307.204ZM162.79 374.134C142.14 383.304 117.51 379.064 101.74 363.614L100.32 362.224C80.5203 342.834 80.9203 312.254 101.22 293.314C117.32 278.294 141.92 274.574 162.28 284.074L244.37 328.894L162.79 374.134Z" fill="black"/>
</svg>
