<?xml version="1.0" encoding="UTF-8"?><svg id="Calque_1" xmlns="http://www.w3.org/2000/svg" viewBox="0 0 1920 1080"><path d="M648.55,422.93l-177.16-98.79c-.56-.31-1.14-.61-1.73-.89-52.78-24.6-115.64-13.35-156.34,28.07h0c-51.61,52.52-51.37,136.07,.55,188.26l3.73,3.75c41.06,41.26,104.18,52.03,156.87,26.87,.76-.37,1.51-.77,2.23-1.21l172.61-104.88c15.5-9.42,15.08-32.34-.77-41.18Zm-212.49,70.19c-20.22,9.48-44.58,5.61-60.37-9.6l-1.42-1.37c-19.83-19.09-19.9-49.68-.16-68.92,15.65-15.26,39.85-19.35,60.08-10.16l81.64,43.58-79.76,46.47Z" style="fill:#4c0bd1;"/><path d="M389.86,516.96l178.07-101.49c.57-.32,1.15-.63,1.74-.91,53.13-25.4,117.02-15.12,158.93,25.67h0c53.14,51.73,54.18,135.27,2.36,188.24l-3.72,3.81c-40.98,41.89-104.81,53.61-158.61,29.27-.78-.35-1.54-.75-2.28-1.18l-176.61-102.23c-15.86-9.18-15.79-32.11,.14-41.19Zm216.5,66.93c20.65,9.17,45.28,4.93,61.05-10.52l1.42-1.39c19.8-19.39,19.4-49.97-.9-68.91-16.1-15.02-40.7-18.74-61.06-9.24l-82.09,44.82,81.58,45.24Z" style="fill:#ee3ec9;"/><path d="M654.44,612.35l-178.07-101.49c-.57-.32-1.15-.63-1.74-.91-53.13-25.4-117.02-15.12-158.93,25.67h0c-53.14,51.73-54.18,135.27-2.36,188.24l3.72,3.81c40.98,41.89,104.81,53.61,158.61,29.27,.78-.35,1.54-.75,2.28-1.18l176.61-102.23c15.86-9.18,15.79-32.11-.14-41.19Zm-216.5,66.93c-20.65,9.17-45.28,4.93-61.05-10.52l-1.42-1.39c-19.8-19.39-19.4-49.97,.9-68.91,16.1-15.02,40.7-18.74,61.06-9.24l82.09,44.82-81.58,45.24Z" style="fill:#cb88ff;"/><g><path d="M927.99,488.79c-6.62,20.16-25.63,34.7-47.95,34.7-27.79,0-50.4-22.61-50.4-50.4s22.61-50.4,50.4-50.4c22.32,0,41.18,14.4,47.81,34.42h-24.05c-4.03-8.78-13.82-14.26-23.76-14.26-15.84,0-28.51,13.68-28.51,30.24s12.67,30.24,28.51,30.24c10.08,0,19.87-5.9,23.9-14.54h24.05Z" style="fill:#fff;"/><path d="M1001.86,523.5c-27.07,0-50.4-23.33-50.4-50.4s23.33-50.4,50.4-50.4,50.4,23.33,50.4,50.4-23.33,50.4-50.4,50.4Zm0-79.34c-15.12,0-28.8,13.68-28.8,28.8s13.68,28.94,28.8,28.94,28.8-13.82,28.8-28.94-13.68-28.8-28.8-28.8Z" style="fill:#fff;"/><path d="M1080.77,424.14h21.6v78.33h35.14v19.58h-56.74v-97.92Z" style="fill:#fff;"/><path d="M1166.02,424.14h21.6v78.33h35.14v19.58h-56.74v-97.92Z" style="fill:#fff;"/><path d="M1317.94,522.06l-7.06-19.73h-37.3l-7.06,19.73h-23.18l39.74-97.92h18.29l39.74,97.92h-23.18Zm-25.78-72.29l-12.38,34.85h24.77l-12.38-34.85Z" style="fill:#fff;"/><path d="M1404.91,522.06h-39.6v-97.92h33.7c16.7,0,27.36,11.09,27.36,24.48,0,9.94-4.32,17.42-11.66,20.74,10.94,2.59,19.87,11.38,19.87,24.62,0,16.85-10.94,28.08-29.66,28.08Zm-10.51-80.93h-7.49v22.75h7.49c6.19,0,11.38-5.18,11.38-11.38s-5.18-11.38-11.38-11.38Zm6.19,40.46h-13.68v23.62h13.68c6.48,0,11.95-5.33,11.95-11.81s-5.47-11.81-11.95-11.81Z" style="fill:#fff;"/><path d="M1538.26,424.14v59.76c0,26.06-14.98,39.6-40.46,39.6s-40.46-13.54-40.46-39.6v-59.76h21.6v56.59c0,13.54,4.18,21.17,18.86,21.17s18.86-7.63,18.86-21.17v-56.59h21.6Z" style="fill:#fff;"/><path d="M1623.65,495.27c0-19.01-56.59-6.77-56.59-42.91,0-20.16,18.72-29.66,36.58-29.66,20.16,0,38.3,8.93,39.02,31.25h-20.88c-1.15-10.22-7.06-13.54-17.86-13.54-6.05,0-14.54,2.88-14.54,10.22,0,17.42,56.59,4.9,56.59,42.19,0,23.04-20.59,31.54-40.61,31.54-21.6,0-41.33-10.66-41.47-34.56h21.89c.58,11.66,9.79,16.99,20.45,16.99,6.77,0,17.42-2.74,17.42-11.52Z" style="fill:#fff;"/></g><g><path d="M956.85,588.15c0-1.34-.73-2.08-2.07-2.08h-8.79c-1.34,0-2.07,.73-2.07,2.08v4.15c0,1.34,.73,1.77,2.07,2.07l11.35,2.44c4.76,1.04,8.79,3.91,8.79,8.79v7.93c0,5.13-3.54,8.67-8.66,8.67h-13.67c-5.13,0-8.67-3.54-8.67-8.67v-5.61h8.54v3.91c0,1.34,.73,2.07,2.07,2.07h9.52c1.34,0,2.07-.73,2.07-2.07v-4.64c0-1.34-.73-1.77-2.07-2.08l-11.35-2.44c-4.76-1.04-8.79-3.91-8.79-8.79v-7.44c0-5.13,3.54-8.67,8.67-8.67h12.94c5.13,0,8.67,3.54,8.67,8.67v5.13h-8.54v-3.42Z" style="fill:#cb88ff;"/><path d="M980.83,584.61c0,1.77-1.46,3.84-2.93,5.74l-3.6,4.76h-3.42l4.7-8.18h-3.29v-8.91h8.54v6.59Z" style="fill:#cb88ff;"/><path d="M989,578.02h8.79v43.93h-8.79v-43.93Z" style="fill:#cb88ff;"/><path d="M1041.29,578.02v43.93h-9.46l-16.17-29.96v29.96h-8.24v-43.93h9.46l16.17,29.96v-29.96h8.24Z" style="fill:#cb88ff;"/><path d="M1071.44,588.15c0-1.34-.73-2.08-2.07-2.08h-8.79c-1.34,0-2.08,.73-2.08,2.08v4.15c0,1.34,.73,1.77,2.08,2.07l11.35,2.44c4.76,1.04,8.79,3.91,8.79,8.79v7.93c0,5.13-3.54,8.67-8.67,8.67h-13.67c-5.12,0-8.66-3.54-8.66-8.67v-5.61h8.54v3.91c0,1.34,.73,2.07,2.08,2.07h9.52c1.34,0,2.08-.73,2.08-2.07v-4.64c0-1.34-.73-1.77-2.08-2.08l-11.35-2.44c-4.76-1.04-8.79-3.91-8.79-8.79v-7.44c0-5.13,3.54-8.67,8.66-8.67h12.94c5.13,0,8.67,3.54,8.67,8.67v5.13h-8.54v-3.42Z" style="fill:#cb88ff;"/><path d="M1111.52,578.02c5.12,0,8.66,3.54,8.66,8.67v11.11c0,5.13-3.54,8.67-8.66,8.67h-13.67v15.5h-8.79v-43.93h22.46Zm-2.2,20.14c1.34,0,2.08-.73,2.08-2.07v-7.69c0-1.34-.73-2.08-2.08-2.08h-11.47v11.84h11.47Z" style="fill:#cb88ff;"/><path d="M1127.26,578.02h8.79v43.93h-8.79v-43.93Z" style="fill:#cb88ff;"/><path d="M1168.63,621.96l-7.08-16.29h-7.08v16.29h-8.79v-43.93h22.39c5.13,0,8.67,3.54,8.67,8.67v10.31c0,4.15-2.32,7.26-5.98,8.3l7.32,16.66h-9.46Zm-.67-33.56c0-1.34-.73-2.08-2.07-2.08h-11.41v11.17h11.41c1.34,0,2.07-.73,2.07-2.08v-7.02Z" style="fill:#cb88ff;"/><path d="M1214.09,578.02v8.3h-19.95v9.03h16.17v8.3h-16.17v10.01h19.95v8.3h-28.74v-43.93h28.74Z" style="fill:#cb88ff;"/><path d="M1244.78,621.96l-7.08-16.29h-7.08v16.29h-8.79v-43.93h22.39c5.13,0,8.67,3.54,8.67,8.67v10.31c0,4.15-2.32,7.26-5.98,8.3l7.32,16.66h-9.46Zm-.67-33.56c0-1.34-.73-2.08-2.07-2.08h-11.41v11.17h11.41c1.34,0,2.07-.73,2.07-2.08v-7.02Z" style="fill:#cb88ff;"/><path d="M1300.49,578.02c5.13,0,8.67,3.54,8.67,8.67v26.6c0,5.13-3.54,8.67-8.67,8.67h-22.88v-43.93h22.88Zm-2.2,35.64c1.34,0,2.08-.73,2.08-2.07v-23.19c0-1.34-.73-2.08-2.08-2.08h-11.9v27.34h11.9Z" style="fill:#cb88ff;"/><path d="M1348.45,613.54c0,5.13-3.54,8.67-8.67,8.67h-14.03c-5.13,0-8.67-3.54-8.67-8.67v-35.51h8.79v33.81c0,1.34,.73,2.07,2.07,2.07h9.64c1.34,0,2.07-.73,2.07-2.07v-33.81h8.79v35.51Z" style="fill:#cb88ff;"/><path d="M1373.52,578.02h28.74v8.3h-19.95v9.4h16.17v8.3h-16.17v17.94h-8.79v-43.93Z" style="fill:#cb88ff;"/><path d="M1439.61,613.54c0,5.13-3.54,8.67-8.67,8.67h-14.03c-5.13,0-8.67-3.54-8.67-8.67v-35.51h8.79v33.81c0,1.34,.73,2.07,2.07,2.07h9.64c1.34,0,2.07-.73,2.07-2.07v-33.81h8.79v35.51Z" style="fill:#cb88ff;"/><path d="M1465.54,586.2v35.76h-8.79v-35.76h-11.47v-8.18h31.73v8.18h-11.47Z" style="fill:#cb88ff;"/><path d="M1514.05,613.54c0,5.13-3.54,8.67-8.67,8.67h-14.03c-5.13,0-8.67-3.54-8.67-8.67v-35.51h8.79v33.81c0,1.34,.73,2.07,2.07,2.07h9.64c1.34,0,2.07-.73,2.07-2.07v-33.81h8.79v35.51Z" style="fill:#cb88ff;"/><path d="M1545.96,621.96l-7.08-16.29h-7.08v16.29h-8.79v-43.93h22.39c5.13,0,8.67,3.54,8.67,8.67v10.31c0,4.15-2.32,7.26-5.98,8.3l7.32,16.66h-9.46Zm-.67-33.56c0-1.34-.73-2.08-2.07-2.08h-11.41v11.17h11.41c1.34,0,2.07-.73,2.07-2.08v-7.02Z" style="fill:#cb88ff;"/></g></svg>