<svg width="817" height="102" viewBox="0 0 817 102" fill="none" xmlns="http://www.w3.org/2000/svg">
<path d="M98.35 66.1C91.73 86.26 72.72 100.8 50.4 100.8C22.61 100.8 0 78.19 0 50.4C0 22.61 22.61 0 50.4 0C72.72 0 91.58 14.4 98.21 34.42H74.16C70.13 25.64 60.34 20.16 50.4 20.16C34.56 20.16 21.89 33.84 21.89 50.4C21.89 66.96 34.56 80.64 50.4 80.64C60.48 80.64 70.27 74.74 74.3 66.1H98.35Z" fill="black"/>
<path d="M172.22 100.81C145.15 100.81 121.82 77.48 121.82 50.41C121.82 23.34 145.15 0.0100098 172.22 0.0100098C199.29 0.0100098 222.62 23.34 222.62 50.41C222.62 77.48 199.29 100.81 172.22 100.81ZM172.22 21.47C157.1 21.47 143.42 35.15 143.42 50.27C143.42 65.39 157.1 79.21 172.22 79.21C187.34 79.21 201.02 65.39 201.02 50.27C201.02 35.15 187.34 21.47 172.22 21.47Z" fill="black"/>
<path d="M251.13 1.45001H272.73V79.78H307.87V99.36H251.13V1.44V1.45001Z" fill="black"/>
<path d="M336.38 1.45001H357.98V79.78H393.12V99.36H336.38V1.44V1.45001Z" fill="black"/>
<path d="M488.3 99.37L481.24 79.64H443.94L436.88 99.37H413.7L453.44 1.45001H471.73L511.47 99.37H488.29H488.3ZM462.52 27.08L450.14 61.93H474.91L462.53 27.08H462.52Z" fill="black"/>
<path d="M575.27 99.37H535.67V1.45001H569.37C586.07 1.45001 596.73 12.54 596.73 25.93C596.73 35.87 592.41 43.35 585.07 46.67C596.01 49.26 604.94 58.05 604.94 71.29C604.94 88.14 594 99.37 575.28 99.37H575.27ZM564.76 18.44H557.27V41.19H564.76C570.95 41.19 576.14 36.01 576.14 29.81C576.14 23.61 570.96 18.43 564.76 18.43V18.44ZM570.95 58.9H557.27V82.52H570.95C577.43 82.52 582.9 77.19 582.9 70.71C582.9 64.23 577.43 58.9 570.95 58.9Z" fill="black"/>
<path d="M708.62 1.45001V61.21C708.62 87.27 693.64 100.81 668.16 100.81C642.68 100.81 627.7 87.27 627.7 61.21V1.45001H649.3V58.04C649.3 71.58 653.48 79.21 668.16 79.21C682.84 79.21 687.02 71.58 687.02 58.04V1.45001H708.62Z" fill="black"/>
<path d="M794.01 72.58C794.01 53.57 737.42 65.81 737.42 29.67C737.42 9.50998 756.14 0.0100098 774 0.0100098C794.16 0.0100098 812.3 8.94001 813.02 31.26H792.14C790.99 21.04 785.08 17.72 774.28 17.72C768.23 17.72 759.74 20.6 759.74 27.94C759.74 45.36 816.33 32.84 816.33 70.13C816.33 93.17 795.74 101.67 775.72 101.67C754.12 101.67 734.39 91.01 734.25 67.11H756.14C756.72 78.77 765.93 84.1 776.59 84.1C783.36 84.1 794.01 81.36 794.01 72.58Z" fill="black"/>
</svg>
